<svg xmlns="http://www.w3.org/2000/svg" viewBox="5774 5377.87939453125 26 26" data-guides="{&quot;vertical&quot;:[],&quot;horizontal&quot;:[]}"> <path fill="#226E9E" stroke="none" fill-opacity="1" stroke-width="1" stroke-opacity="1" font-size-adjust="none" id="tSvg68e56a8d56" title="Path 2" d="M 5782.232530000001 5391.194910344828 C 5781.856570000001 5390.790410344828 5781.223830000001 5390.767210344828 5780.819270000001 5391.143110344828C 5780.414700000001 5391.519110344828 5780.391510000001 5392.151810344828 5780.767470000001 5392.556410344828C 5781.255823333334 5392.102577011495 5781.744176666668 5391.648743678161 5782.232530000001 5391.194910344828ZM 5784.833330000001 5395.462610344828 C 5784.589153333334 5395.6895436781615 5784.344976666667 5395.916477011495 5784.100800000001 5396.143410344828C 5784.290000000001 5396.347010344828 5784.555400000001 5396.462610344828 5784.833330000001 5396.462610344828C 5785.1113000000005 5396.462610344828 5785.376700000001 5396.347010344828 5785.5659000000005 5396.143410344828C 5785.321710000001 5395.916477011495 5785.077520000001 5395.6895436781615 5784.833330000001 5395.462610344828ZM 5793.232500000001 5387.893380344828 C 5793.608500000001 5387.4888103448275 5793.585300000001 5386.8560703448275 5793.180700000001 5386.480110344828C 5792.776200000001 5386.104150344828 5792.143400000001 5386.127340344828 5791.767500000001 5386.531910344828C 5792.2558333333345 5386.9857336781615 5792.744166666667 5387.439557011495 5793.232500000001 5387.893380344828ZM 5780.767470000001 5392.556410344828 C 5781.8785800000005 5393.752077011494 5782.989690000001 5394.947743678161 5784.100800000001 5396.143410344828C 5784.589166666668 5395.689577011494 5785.077533333334 5395.235743678161 5785.5659000000005 5394.781910344828C 5784.454776666667 5393.586243678161 5783.343653333334 5392.390577011494 5782.232530000001 5391.194910344828C 5781.744176666668 5391.648743678161 5781.255823333334 5392.102577011495 5780.767470000001 5392.556410344828ZM 5785.5659000000005 5396.143410344828 C 5788.121433333335 5393.393400344828 5790.676966666668 5390.643390344828 5793.232500000001 5387.893380344828C 5792.744166666667 5387.439557011495 5792.2558333333345 5386.9857336781615 5791.767500000001 5386.531910344828C 5789.211933333334 5389.281910344828 5786.656366666668 5392.031910344828 5784.100800000001 5394.781910344828C 5784.589166666668 5395.235743678161 5785.077533333334 5395.689577011494 5785.5659000000005 5396.143410344828ZM 5797.000000000001 5390.879310344828 C 5797.000000000001 5396.402110344828 5792.522800000001 5400.879310344828 5787.000000000001 5400.879310344828C 5787.000000000001 5401.545977011495 5787.000000000001 5402.212643678161 5787.000000000001 5402.879310344828C 5793.627400000001 5402.879310344828 5799.000000000001 5397.506710344828 5799.000000000001 5390.879310344828C 5798.333333333334 5390.879310344828 5797.666666666668 5390.879310344828 5797.000000000001 5390.879310344828ZM 5787.000000000001 5400.879310344828 C 5781.477150000001 5400.879310344828 5777.000000000001 5396.402110344828 5777.000000000001 5390.879310344828C 5776.333333333334 5390.879310344828 5775.666666666668 5390.879310344828 5775.000000000001 5390.879310344828C 5775.000000000001 5397.506710344828 5780.372580000001 5402.879310344828 5787.000000000001 5402.879310344828C 5787.000000000001 5402.212643678161 5787.000000000001 5401.545977011495 5787.000000000001 5400.879310344828ZM 5777.000000000001 5390.879310344828 C 5777.000000000001 5385.356460344828 5781.477150000001 5380.879310344828 5787.000000000001 5380.879310344828C 5787.000000000001 5380.212643678161 5787.000000000001 5379.545977011495 5787.000000000001 5378.879310344828C 5780.372580000001 5378.879310344828 5775.000000000001 5384.251890344828 5775.000000000001 5390.879310344828C 5775.666666666668 5390.879310344828 5776.333333333334 5390.879310344828 5777.000000000001 5390.879310344828ZM 5787.000000000001 5380.879310344828 C 5792.522800000001 5380.879310344828 5797.000000000001 5385.356460344828 5797.000000000001 5390.879310344828C 5797.666666666668 5390.879310344828 5798.333333333334 5390.879310344828 5799.000000000001 5390.879310344828C 5799.000000000001 5384.251890344828 5793.627400000001 5378.879310344828 5787.000000000001 5378.879310344828C 5787.000000000001 5379.545977011495 5787.000000000001 5380.212643678161 5787.000000000001 5380.879310344828Z"></path> <defs></defs> </svg>